REM DIRINDEX 1\2\6,1\2\7,1\2\8,1\2\9,1\3\10,1\3\11,1\4\12,1\4\13,1\4\14,1\5\15,1\5\16,1\5\17
REM DIRNAME folder01,folder02,folder03,folder04,folder05,folder06,folder07,folder08,folder09,folder10,folder11,folder12,folder13,folder14,folder15,folder16,folder17
TITLE ""
FILE "1900_3_054 sec09_0886_0900.mp3" MP3
  TRACK 01 AUDIO
    TITLE "0:"
    INDEX 01 00:00:00
  TRACK 02 AUDIO
    TITLE "17:cjc020_7747"
    INDEX 01 00:00:15
  TRACK 03 AUDIO
    TITLE "0:"
    INDEX 01 00:03:10
  TRACK 04 AUDIO
    TITLE "16:cjc020_7748"
    INDEX 01 00:03:17
  TRACK 05 AUDIO
    TITLE "0:"
    INDEX 01 00:04:17
  TRACK 06 AUDIO
    TITLE "17:cjc020_7749"
    INDEX 01 00:05:01
  TRACK 07 AUDIO
    TITLE "0:"
    INDEX 01 00:06:08
  TRACK 08 AUDIO
    TITLE "16:cjc020_7750"
    INDEX 01 00:06:14
  TRACK 09 AUDIO
    TITLE "0:"
    INDEX 01 00:07:19
  TRACK 10 AUDIO
    TITLE "17:cjc020_7751"
    INDEX 01 00:08:07
  TRACK 11 AUDIO
    TITLE "0:"
    INDEX 01 00:09:40
  TRACK 12 AUDIO
    TITLE "16:cjc020_7752"
    INDEX 01 00:09:45
  TRACK 13 AUDIO
    TITLE "0:"
    INDEX 01 00:10:55
  TRACK 14 AUDIO
    TITLE "17:cjc020_7753"
    INDEX 01 00:11:42
  TRACK 15 AUDIO
    TITLE "0:"
    INDEX 01 00:13:61
  TRACK 16 AUDIO
    TITLE "16:cjc020_7754"
    INDEX 01 00:13:71
  TRACK 17 AUDIO
    TITLE "0:"
    INDEX 01 00:14:68
  TRACK 18 AUDIO
    TITLE "17:cjc020_7755"
    INDEX 01 00:15:52
  TRACK 19 AUDIO
    TITLE "0:"
    INDEX 01 00:17:02
  TRACK 20 AUDIO
    TITLE "16:cjc020_7756"
    INDEX 01 00:17:08
  TRACK 21 AUDIO
    TITLE "0:"
    INDEX 01 00:18:13
  TRACK 22 AUDIO
    TITLE "17:cjc020_7757"
    INDEX 01 00:18:72
  TRACK 23 AUDIO
    TITLE "0:"
    INDEX 01 00:21:49
  TRACK 24 AUDIO
    TITLE "16:cjc020_7758"
    INDEX 01 00:21:58
  TRACK 25 AUDIO
    TITLE "0:"
    INDEX 01 00:22:56
  TRACK 26 AUDIO
    TITLE "17:cjc020_7759"
    INDEX 01 00:23:42
  TRACK 27 AUDIO
    TITLE "0:"
    INDEX 01 00:24:37
  TRACK 28 AUDIO
    TITLE "16:cjc020_7760"
    INDEX 01 00:24:41
  TRACK 29 AUDIO
    TITLE "0:"
    INDEX 01 00:25:37
  TRACK 30 AUDIO
    TITLE "17:cjc020_7761"
    INDEX 01 00:26:24
  TRACK 31 AUDIO
    TITLE "0:"
    INDEX 01 00:27:28
  TRACK 32 AUDIO
    TITLE "16:cjc020_7762"
    INDEX 01 00:27:39
  TRACK 33 AUDIO
    TITLE "0:"
    INDEX 01 00:28:41
  TRACK 34 AUDIO
    TITLE "17:cjc020_7763"
    INDEX 01 00:29:27
  TRACK 35 AUDIO
    TITLE "0:"
    INDEX 01 00:30:40
  TRACK 36 AUDIO
    TITLE "16:cjc020_7764"
    INDEX 01 00:30:46
  TRACK 37 AUDIO
    TITLE "0:"
    INDEX 01 00:31:49
  TRACK 38 AUDIO
    TITLE "17:cjc020_7765"
    INDEX 01 00:32:33
  TRACK 39 AUDIO
    TITLE "0:"
    INDEX 01 00:33:50
  TRACK 40 AUDIO
    TITLE "16:cjc020_7766"
    INDEX 01 00:33:52
  TRACK 41 AUDIO
    TITLE "0:"
    INDEX 01 00:34:55
  TRACK 42 AUDIO
    TITLE "17:cjc020_7767"
    INDEX 01 00:35:39
  TRACK 43 AUDIO
    TITLE "0:"
    INDEX 01 00:36:44
  TRACK 44 AUDIO
    TITLE "16:cjc020_7768"
    INDEX 01 00:36:48
  TRACK 45 AUDIO
    TITLE "0:"
    INDEX 01 00:37:52
  TRACK 46 AUDIO
    TITLE "17:cjc020_7769"
    INDEX 01 00:38:35
  TRACK 47 AUDIO
    TITLE "0:"
    INDEX 01 00:40:30
  TRACK 48 AUDIO
    TITLE "16:cjc020_7770"
    INDEX 01 00:40:36
  TRACK 49 AUDIO
    TITLE "0:"
    INDEX 01 00:41:26
  TRACK 50 AUDIO
    TITLE "17:cjc020_7771"
    INDEX 01 00:42:12
  TRACK 51 AUDIO
    TITLE "0:"
    INDEX 01 00:43:19
  TRACK 52 AUDIO
    TITLE "16:cjc020_7772"
    INDEX 01 00:43:25
  TRACK 53 AUDIO
    TITLE "0:"
    INDEX 01 00:44:32
  TRACK 54 AUDIO
    TITLE "17:cjc020_7773"
    INDEX 01 00:45:16
  TRACK 55 AUDIO
    TITLE "0:"
    INDEX 01 00:46:53
  TRACK 56 AUDIO
    TITLE "16:cjc020_7774"
    INDEX 01 00:46:62
  TRACK 57 AUDIO
    TITLE "0:"
    INDEX 01 00:47:64
  TRACK 58 AUDIO
    TITLE "17:cjc020_7775"
    INDEX 01 00:48:49
  TRACK 59 AUDIO
    TITLE "0:"
    INDEX 01 00:49:65
  TRACK 60 AUDIO
    TITLE "16:cjc020_7776"
    INDEX 01 00:49:74
  TRACK 61 AUDIO
    TITLE "0:"
    INDEX 01 00:50:68
